<svg xmlns="http://www.w3.org/2000/svg" aria-hidden="true" style="position:absolute;width:0;height:0;overflow:hidden">
  <defs>
    <symbol id="icon-Ellipse" viewBox="0 0 32 32">
      <path fill="#4d5ae5" d="M32 16c0 4.418-1.791 8.418-4.686 11.314S20.419 32 16 32c-4.418 0-8.418-1.791-11.314-4.686S0 20.419 0 16c0-4.418 1.791-8.418 4.686-11.314S11.581 0 16 0c4.418 0 8.418 1.791 11.314 4.686S32 11.581 32 16z" style="fill:var(--color1, #4d5ae5)"/>
      <path fill="#f4f4fd" d="M22.387 13.363c-.03-.68-.14-1.148-.298-1.553a3.136 3.136 0 0 0-.74-1.135 3.153 3.153 0 0 0-1.133-.738c-.408-.158-.873-.268-1.553-.298-.685-.032-.903-.04-2.641-.04s-1.955.008-2.638.038c-.68.03-1.148.14-1.553.298-.43.162-.815.413-1.135.74-.325.32-.578.708-.738 1.133-.158.408-.268.873-.298 1.553-.032.685-.04.903-.04 2.641s.008 1.955.038 2.638c.03.68.14 1.148.298 1.553.162.43.415.815.74 1.135.32.325.708.578 1.133.738.408.158.873.268 1.553.298.683.03.9.038 2.638.038s1.955-.007 2.638-.038c.68-.03 1.148-.14 1.553-.298a3.278 3.278 0 0 0 1.873-1.873c.157-.408.268-.873.298-1.553.03-.683.038-.9.038-2.638s-.003-1.955-.033-2.638zm-1.152 5.226c-.028.625-.133.963-.22 1.188-.215.558-.658 1-1.215 1.215-.225.088-.565.193-1.188.22-.675.03-.878.037-2.585.037s-1.913-.007-2.586-.037c-.625-.027-.963-.132-1.188-.22a1.966 1.966 0 0 1-.735-.478 1.998 1.998 0 0 1-.478-.735c-.088-.225-.193-.565-.22-1.188-.03-.675-.038-.878-.038-2.586s.007-1.913.038-2.586c.027-.625.132-.963.22-1.188.103-.278.265-.53.48-.735a1.99 1.99 0 0 1 .735-.478c.225-.087.565-.192 1.188-.22.675-.03.878-.038 2.586-.038 1.71 0 1.913.008 2.586.038.625.028.963.133 1.188.22.277.102.53.265.735.478.212.208.375.458.478.735.088.225.192.565.22 1.188.03.675.038.878.038 2.586s-.008 1.908-.038 2.583z" style="fill:var(--color2, #f4f4fd)"/>
      <path fill="#f4f4fd" d="M16.024 12.713a3.29 3.29 0 0 0 0 6.576 3.29 3.29 0 0 0 0-6.576zm0 5.421a2.133 2.133 0 1 1 0-4.266 2.133 2.133 0 0 1 0 4.266zM20.21 12.583a.768.768 0 1 1-1.536 0 .768.768 0 0 1 1.536 0z" style="fill:var(--color2, #f4f4fd)"/>
    </symbol>
    <symbol id="icon-Ellipse-1" viewBox="0 0 32 32">
      <path fill="#4d5ae5" d="M32 16c0 4.418-1.791 8.418-4.686 11.314S20.419 32 16 32c-4.418 0-8.418-1.791-11.314-4.686S0 20.419 0 16c0-4.418 1.791-8.418 4.686-11.314S11.581 0 16 0c4.418 0 8.418 1.791 11.314 4.686S32 11.581 32 16z" style="fill:var(--color1, #4d5ae5)"/>
      <path fill="#f4f4fd" d="M22.4 12.031a5.455 5.455 0 0 1-1.512.414 2.608 2.608 0 0 0 1.154-1.45 5.245 5.245 0 0 1-1.664.635 2.623 2.623 0 0 0-4.539 1.795c0 .208.018.408.061.598a7.426 7.426 0 0 1-5.409-2.745 2.628 2.628 0 0 0 .807 3.507 2.591 2.591 0 0 1-1.186-.323v.029c0 1.275.91 2.334 2.102 2.578a2.636 2.636 0 0 1-.688.086c-.168 0-.338-.01-.497-.045a2.65 2.65 0 0 0 2.452 1.828 5.275 5.275 0 0 1-3.882 1.083 7.384 7.384 0 0 0 4.026 1.178c4.829 0 7.469-4 7.469-7.467a6.24 6.24 0 0 0-.01-.339c.521-.37.958-.831 1.315-1.362z" style="fill:var(--color2, #f4f4fd)"/>
    </symbol>
    <symbol id="icon-Ellipse-2" viewBox="0 0 32 32">
      <path fill="#4d5ae5" d="M32 16c0 4.418-1.791 8.418-4.686 11.314S20.419 32 16 32c-4.418 0-8.418-1.791-11.314-4.686S0 20.419 0 16c0-4.418 1.791-8.418 4.686-11.314S11.581 0 16 0c4.418 0 8.418 1.791 11.314 4.686S32 11.581 32 16z" style="fill:var(--color1, #4d5ae5)"/>
      <path fill="#f4f4fd" d="M18.132 11.725h1.169V9.69a15.04 15.04 0 0 0-1.702-.09c-1.685 0-2.839 1.06-2.839 3.007V14.4h-1.859v2.275h1.859V22.4h2.279v-5.724h1.784l.283-2.275h-2.068v-1.567c0-.658.178-1.108 1.094-1.108z" style="fill:var(--color2, #f4f4fd)"/>
    </symbol>
    <symbol id="icon-Ellipse-3" viewBox="0 0 32 32">
      <path fill="#4d5ae5" d="M32 16c0 4.418-1.791 8.418-4.686 11.314S20.419 32 16 32c-4.418 0-8.418-1.791-11.314-4.686S0 20.419 0 16c0-4.418 1.791-8.418 4.686-11.314S11.581 0 16 0c4.418 0 8.418 1.791 11.314 4.686S32 11.581 32 16z" style="fill:var(--color1, #4d5ae5)"/>
      <path fill="#f4f4fd" d="M22.397 22.4v-.001h.003v-4.694c0-2.297-.494-4.066-3.179-4.066-1.291 0-2.157.708-2.51 1.38h-.037v-1.165h-2.546V22.4h2.651v-4.231c0-1.114.211-2.192 1.591-2.192 1.36 0 1.38 1.272 1.38 2.263v4.161h2.648zM9.811 13.854h2.654V22.4H9.811v-8.546zM11.137 9.6c-.849 0-1.537.688-1.537 1.537s.688 1.551 1.537 1.551 1.537-.703 1.537-1.551S11.985 9.6 11.137 9.6z" style="fill:var(--color2, #f4f4fd)"/>
    </symbol>
    <symbol id="icon-Ellipse-4" viewBox="0 0 32 32">
      <path fill="#fff" d="M32 16c0 4.418-1.791 8.418-4.686 11.314S20.419 32 16 32c-4.418 0-8.418-1.791-11.314-4.686S0 20.419 0 16c0-4.418 1.791-8.418 4.686-11.314S11.581 0 16 0c4.418 0 8.418 1.791 11.314 4.686S32 11.581 32 16z" opacity=".1" style="fill:var(--color3, #fff)"/>
      <path fill="#f4f4fd" d="M25.581 12.045c-.045-1.02-.21-1.722-.446-2.329a4.693 4.693 0 0 0-1.11-1.703 4.714 4.714 0 0 0-1.699-1.106c-.611-.236-1.309-.401-2.329-.446-1.028-.049-1.354-.06-3.961-.06s-2.933.011-3.957.056c-1.02.045-1.722.21-2.329.446a4.693 4.693 0 0 0-1.703 1.11 4.723 4.723 0 0 0-1.106 1.699c-.236.611-.401 1.309-.446 2.329-.049 1.028-.06 1.354-.06 3.961s.011 2.933.056 3.957c.045 1.02.21 1.722.446 2.329a4.745 4.745 0 0 0 1.11 1.703c.48.488 1.061.866 1.699 1.106.611.236 1.309.401 2.329.446 1.024.045 1.35.056 3.957.056s2.933-.011 3.957-.056c1.02-.045 1.722-.21 2.329-.446a4.912 4.912 0 0 0 2.809-2.809c.236-.611.401-1.309.446-2.329.045-1.024.056-1.35.056-3.957s-.004-2.933-.049-3.957zm-1.729 7.839c-.041.938-.199 1.444-.33 1.782a3.187 3.187 0 0 1-1.823 1.823c-.338.131-.848.289-1.782.33-1.013.045-1.316.056-3.878.056s-2.869-.011-3.878-.056c-.938-.041-1.444-.199-1.782-.33a2.972 2.972 0 0 1-1.103-.716 2.964 2.964 0 0 1-.716-1.103c-.131-.338-.289-.848-.33-1.782-.045-1.013-.056-1.317-.056-3.878s.011-2.869.056-3.878c.041-.938.199-1.444.33-1.782.154-.416.398-.795.72-1.103a2.964 2.964 0 0 1 1.103-.716c.338-.131.848-.289 1.782-.33 1.013-.045 1.317-.056 3.878-.056 2.566 0 2.869.011 3.878.056.938.041 1.444.199 1.782.33a2.96 2.96 0 0 1 1.103.716c.319.311.563.686.716 1.103.131.338.289.848.33 1.782.045 1.013.056 1.316.056 3.878s-.011 2.862-.056 3.875z" style="fill:var(--color2, #f4f4fd)"/>
      <path fill="#f4f4fd" d="M16.036 11.07a4.933 4.933 0 0 0 0 9.864 4.933 4.933 0 0 0 0-9.864zm0 8.131a3.2 3.2 0 1 1 .002-6.4 3.2 3.2 0 0 1-.002 6.4zM22.314 10.875a1.151 1.151 0 1 1-2.303 0 1.151 1.151 0 0 1 2.303 0z" style="fill:var(--color2, #f4f4fd)"/>
    </symbol>
    <symbol id="icon-Ellipse-5" viewBox="0 0 32 32">
      <path fill="#fff" d="M32 16c0 4.418-1.791 8.418-4.686 11.314S20.419 32 16 32c-4.418 0-8.418-1.791-11.314-4.686S0 20.419 0 16c0-4.418 1.791-8.418 4.686-11.314S11.581 0 16 0c4.418 0 8.418 1.791 11.314 4.686S32 11.581 32 16z" opacity=".1" style="fill:var(--color3, #fff)"/>
      <path fill="#f4f4fd" d="M25.6 10.047a8.223 8.223 0 0 1-2.268.622 3.915 3.915 0 0 0 1.732-2.176 7.866 7.866 0 0 1-2.496.953 3.936 3.936 0 0 0-6.809 2.691c0 .312.026.612.091.898a11.143 11.143 0 0 1-8.113-4.117 3.96 3.96 0 0 0-.539 1.99c0 1.363.702 2.572 1.748 3.271a3.888 3.888 0 0 1-1.778-.485v.043a3.954 3.954 0 0 0 3.154 3.868c-.32.088-.67.13-1.032.13-.252 0-.506-.014-.745-.067.51 1.559 1.957 2.705 3.678 2.742a7.907 7.907 0 0 1-4.88 1.679c-.323 0-.632-.014-.942-.054a11.085 11.085 0 0 0 6.038 1.766c7.243 0 11.203-6 11.203-11.201 0-.174-.006-.342-.014-.509a7.845 7.845 0 0 0 1.973-2.044z" style="fill:var(--color2, #f4f4fd)"/>
    </symbol>
    <symbol id="icon-Ellipse-6" viewBox="0 0 32 32">
      <path fill="#fff" d="M32 16c0 4.418-1.791 8.418-4.686 11.314S20.419 32 16 32c-4.418 0-8.418-1.791-11.314-4.686S0 20.419 0 16c0-4.418 1.791-8.418 4.686-11.314S11.581 0 16 0c4.418 0 8.418 1.791 11.314 4.686S32 11.581 32 16z" opacity=".1" style="fill:var(--color3, #fff)"/>
      <path fill="#f4f4fd" d="M19.198 9.588h1.753V6.535a22.54 22.54 0 0 0-2.554-.135c-2.527 0-4.258 1.59-4.258 4.511V13.6H11.35v3.413h2.789V25.6h3.419v-8.586h2.676l.425-3.413h-3.102V11.25c.001-.986.266-1.662 1.641-1.662z" style="fill:var(--color2, #f4f4fd)"/>
    </symbol>
    <symbol id="icon-Ellipse-7" viewBox="0 0 32 32">
      <path fill="#fff" d="M32 16c0 4.418-1.791 8.418-4.686 11.314S20.419 32 16 32c-4.418 0-8.418-1.791-11.314-4.686S0 20.419 0 16c0-4.418 1.791-8.418 4.686-11.314S11.581 0 16 0c4.418 0 8.418 1.791 11.314 4.686S32 11.581 32 16z" opacity=".1" style="fill:var(--color3, #fff)"/>
      <path fill="#f4f4fd" d="M25.595 25.6v-.001h.005v-7.042c0-3.445-.742-6.098-4.769-6.098-1.936 0-3.235 1.062-3.766 2.07h-.056v-1.748h-3.818v12.818h3.976v-6.347c0-1.671.317-3.287 2.386-3.287 2.039 0 2.07 1.907 2.07 3.394V25.6h3.972zM6.717 12.782h3.981V25.6H6.717V12.782zM8.706 6.4C7.433 6.4 6.4 7.433 6.4 8.706s1.033 2.327 2.306 2.327c1.273 0 2.306-1.054 2.306-2.327S9.978 6.4 8.706 6.4z" style="fill:var(--color2, #f4f4fd)"/>
    </symbol>
    <symbol id="icon-Icon-1" viewBox="0 0 75 32">
      <path fill="#f4f4fd" d="M0 1.143C0 .512.512 0 1.143 0h73.143c.631 0 1.143.512 1.143 1.143v29.714c0 .631-.512 1.143-1.143 1.143H1.143A1.143 1.143 0 0 1 0 30.857V1.143z" style="fill:var(--color2, #f4f4fd)"/>
      <path fill="#2e2f42" d="m46.156 19.484-4.825-4.86.535-2.637c.138.054.285.082.433.083h.004a1.234 1.234 0 1 0-1.148-.82l-2.834.346-4.623-4.647a.301.301 0 0 0-.428-.002l-.864.859a.305.305 0 0 0 0 .431l.465.472a8.537 8.537 0 0 0 1.44 10.093.311.311 0 0 0 .083.056 1.823 1.823 0 0 0-.03.313v3.535h-3.657a1.526 1.526 0 0 0-1.524 1.524v.61c0 .168.137.305.305.305h14.019a.305.305 0 0 0 .305-.305v-.61a1.526 1.526 0 0 0-1.524-1.524h-3.657v-1.567c.573.12 1.157.181 1.742.183a8.496 8.496 0 0 0 4.023-1.019l.467.47a.301.301 0 0 0 .428.002l.864-.859a.305.305 0 0 0 0-.431zm-4.282-9.065a.61.61 0 1 1 .429 1.041h-.002a.609.609 0 0 1-.426-1.042h-.001zm-.717 2.002-.342 1.683-.672-.676 1.014-1.008zm-.346-.515-1.097 1.091-.849-.853 1.946-.237zm1.477 11.408c.505 0 .914.409.914.914v.305H29.793v-.305c0-.505.409-.914.914-.914h11.581zm-4.267-1.219v.61h-3.048v-.61h3.048zm-3.047-.609V19.17c0-.739.684-1.341 1.524-1.341s1.524.602 1.524 1.341v2.316h-3.048zm3.657-.969V19.17c0-1.075-.957-1.95-2.133-1.95a2.169 2.169 0 0 0-1.875 1.021 7.924 7.924 0 0 1-1.302-9.078l10.63 10.691a7.899 7.899 0 0 1-5.319.665zm6.451-.391L33.049 8.023l.431-.43 4.534 4.56c.002 0 .003.004.006.005l7.494 7.538-.433.43z" style="fill:var(--color4, #2e2f42)"/>
      <path fill="#4d5ae5" d="M36.5 18.438h-.003a.915.915 0 0 0-.002 1.829h.003a.915.915 0 0 0 .003-1.829zm.214 1.13a.305.305 0 1 1-.216-.521.304.304 0 0 1 .213.521h.003z" style="fill:var(--color1, #4d5ae5)"/>
    </symbol>
    <symbol id="icon-Icon-2" viewBox="0 0 75 32">
      <path fill="#f4f4fd" d="M1.143 0h73.143c.631 0 1.143.512 1.143 1.143v29.714c0 .631-.512 1.143-1.143 1.143H1.143A1.143 1.143 0 0 1 0 30.857V1.143C0 .512.512 0 1.143 0z" style="fill:var(--color2, #f4f4fd)"/>
      <path fill="#2e2f42" d="M46.455 15.601a8.746 8.746 0 1 0-11.406 8.332.385.385 0 0 0 .303-.038.365.365 0 0 0 .162-.204l2.209-7a1.094 1.094 0 1 0-.481-2.078l-2.918-2.918a.364.364 0 0 0-.515.515l2.916 2.919a1.071 1.071 0 0 0 .306 1.319l-2.104 6.67c-4.159-1.532-6.288-6.145-4.756-10.304s6.145-6.288 10.304-4.756a8.024 8.024 0 0 1 .492 14.86l-.227-1.071a.364.364 0 0 0-.599-.196l-2.193 1.957a.363.363 0 0 0 .132.619l2.799.893a.365.365 0 0 0 .468-.422l-.223-1.051a8.718 8.718 0 0 0 5.331-8.051zm-8.745-.365a.365.365 0 1 1 0 .73.365.365 0 0 1 0-.73zm1.2 8.494 1.248-1.113.345 1.623-1.593-.51z" style="fill:var(--color4, #2e2f42)"/>
      <path fill="#4d5ae5" d="M37.345 8.677v.729a.364.364 0 0 0 .729 0v-.729a.364.364 0 0 0-.729 0zM30.786 15.236a.364.364 0 0 0 0 .728h.729a.364.364 0 0 0 0-.728h-.729zM44.633 15.965a.365.365 0 1 0 0-.728h-.729a.364.364 0 0 0 0 .728h.729z" style="fill:var(--color1, #4d5ae5)"/>
    </symbol>
    <symbol id="icon-Icon-3" viewBox="0 0 75 32">
      <path fill="#f4f4fd" d="M1.143 0h73.143c.631 0 1.143.512 1.143 1.143v29.714c0 .631-.512 1.143-1.143 1.143H1.143A1.143 1.143 0 0 1 0 30.857V1.143C0 .512.512 0 1.143 0z" style="fill:var(--color2, #f4f4fd)"/>
      <path fill="#4d5ae5" d="M37.1 15.408h.609v2.741H37.1v-2.741zM39.537 16.627h.609v1.523h-.609v-1.523zM34.663 17.541h.609v.609h-.609v-.609zM32.836 17.236h.609v.914h-.609v-.914z" style="fill:var(--color1, #4d5ae5)"/>
      <path fill="#2e2f42" d="M29.485 23.023h14.621a.914.914 0 0 0 .914-.914v-1.218a.914.914 0 0 0-.914-.914h-.305v-7.596l1.73-1.639a.92.92 0 1 0-.426-.436l-1.304 1.236v-.703a.914.914 0 0 0-.914-.914H30.703a.914.914 0 0 0-.914.914v9.138h-.305a.914.914 0 0 0-.914.914v1.218c0 .505.409.914.914.914zM45.934 9.621a.305.305 0 1 1 0 .61.305.305 0 0 1 0-.61zm-15.535 1.218c0-.168.136-.305.305-.305h12.184c.168 0 .305.136.305.305v1.279l-.609.579v-1.249a.305.305 0 0 0-.305-.305H31.313a.305.305 0 0 0-.305.305v7.615c0 .168.136.305.305.305h10.966a.305.305 0 0 0 .305-.305v-5.528l.609-.577v7.019H30.4v-9.138zm2.742 3.96a.914.914 0 1 0 .633 1.571l1.059.531a.304.304 0 0 0 .364-.07l2.251-2.532 2.213 1.658a.306.306 0 0 0 .392-.022l1.923-1.822v4.646H31.619v-7.006h10.357v1.52l-2.155 2.041-2.231-1.673a.304.304 0 0 0-.41.041l-2.282 2.567-.853-.427c.006-.037.01-.073.012-.111a.914.914 0 0 0-.914-.914zm.304.914a.306.306 0 1 1-.611-.001.306.306 0 0 1 .611.001zm1.828 4.874h3.046v.305a.305.305 0 0 1-.305.305h-2.437a.305.305 0 0 1-.305-.305v-.305zm-6.092.304c0-.168.137-.305.305-.305h5.178v.305c0 .505.409.914.914.914h2.437a.914.914 0 0 0 .914-.914v-.305h5.178c.168 0 .305.136.305.305v1.218a.306.306 0 0 1-.305.305H29.486a.305.305 0 0 1-.305-.305v-1.218z" style="fill:var(--color4, #2e2f42)"/>
    </symbol>
    <symbol id="icon-Icon-4" viewBox="0 0 75 32">
      <path fill="#f4f4fd" d="M1.143 0h73.143c.631 0 1.143.512 1.143 1.143v29.714c0 .631-.512 1.143-1.143 1.143H1.143A1.143 1.143 0 0 1 0 30.857V1.143C0 .512.512 0 1.143 0z" style="fill:var(--color2, #f4f4fd)"/>
      <path fill="#4d5ae5" d="M46.842 9.442a.305.305 0 0 0-.246-.207l-1.091-.159-.489-.989c-.103-.208-.444-.208-.547 0l-.489.989-1.092.159a.305.305 0 0 0-.169.519l.79.77-.187 1.087a.306.306 0 0 0 .442.321l.977-.514.977.514a.307.307 0 0 0 .321-.023.304.304 0 0 0 .121-.298l-.186-1.087.79-.77a.304.304 0 0 0 .077-.312zm-1.407.759a.304.304 0 0 0-.087.27l.109.637-.572-.3a.31.31 0 0 0-.284 0l-.572.3.109-.637a.307.307 0 0 0-.087-.27l-.463-.451.639-.093a.303.303 0 0 0 .229-.167l.286-.579.286.579c.045.09.13.152.229.167l.639.093-.462.451zM43.505 18.584h-.609v.61h.609v-.61zM43.505 19.803h-.609v.61h.609v-.61z" style="fill:var(--color1, #4d5ae5)"/>
      <path fill="#4d5ae5" d="M44.114 19.194h-.609v.61h.609v-.61zM42.895 19.194h-.61v.61h.61v-.61zM41.371 21.937h-.609v.61h.609v-.61zM41.371 23.156h-.609v.61h.609v-.61zM41.981 22.546h-.61v.61h.61v-.61zM40.762 22.546h-.61v.61h.61v-.61zM37.714 20.718h-.609v.61h.609v-.61zM37.714 21.937h-.609v.61h.609v-.61zM38.324 21.327h-.609v.61h.609v-.61zM37.105 21.327h-.61v.61h.61v-.61zM31.924 10.355h-.609v.61h.609v-.61zM31.924 11.575h-.609v.61h.609v-.61zM32.533 10.965h-.609v.61h.609v-.61zM31.314 10.965h-.61v.61h.61v-.61z" style="fill:var(--color1, #4d5ae5)"/>
      <path fill="#2e2f42" d="M42.694 14.948a1.013 1.013 0 0 0-.679-.403 1.016 1.016 0 0 0-.766.201l-.715.549-1.085.81-.776-.309a3.966 3.966 0 0 0 2.351-3.611c0-2.185-1.784-3.962-3.978-3.962S33.068 10 33.068 12.185c0 .792.237 1.528.64 2.148l-1.579-.014h-.003c-.005 0-.009.002-.013.003a.277.277 0 0 0-.089.018c-.007.003-.015.004-.022.008l-.011.004-1.847.912h-.001l-1.082.52a1.018 1.018 0 0 0 1.012 1.766l.793-.422 1.294-.668.775-.005-3.11 3.095-.001.001-.765.762c-.181.18-.28.418-.28.673s.099.493.28.674a.96.96 0 0 0 1.349 0l.751-.748.995-.743.515.513-1.007 1.002-.001.001-.765.762c-.181.18-.28.418-.28.673s.099.493.28.674a.955.955 0 0 0 1.348 0l1.99-1.981.001-.001.577-.571-.002-.002c.004-.004.009-.005.013-.009l2.952-3.233 1.983.282a.3.3 0 0 0 .15-.019l.028-.013c.011-.006.023-.009.033-.015l1.836-1.219c.007-.005.01-.012.017-.017s.016-.008.023-.015l.727-.681c.378-.354.43-.934.121-1.35zm-12.905 2.064a.408.408 0 0 1-.319.03.41.41 0 0 1-.122-.719l.751-.361.181.528.076.222-.567.301zm1.998-1.045-.885.457-.146-.427-.105-.307 1.158-.572-.023.848zm8.628-3.783c0 .525-.125 1.02-.342 1.463l-2.389-1.085a1.064 1.064 0 0 0-.45-.793l.837-2.777a3.358 3.358 0 0 1 2.345 3.193zm-6.736 0c0-1.848 1.511-3.352 3.368-3.352.145 0 .286.012.426.03l-.818 2.716c-.011 0-.021-.003-.033-.003-.59 0-1.07.479-1.07 1.067s.48 1.067 1.07 1.067c.397 0 .74-.219.925-.54l2.207 1.003a3.369 3.369 0 0 1-6.075-1.986zm3.404.457c0 .252-.207.457-.461.457s-.461-.205-.461-.457.207-.457.461-.457a.46.46 0 0 1 .461.457zm-7.103 8.585a.346.346 0 0 1-.589-.242c0-.091.036-.177.101-.241l.55-.548.486.484-.548.546zm1.836 2.134a.346.346 0 0 1-.589-.242c0-.091.036-.176.101-.241l.55-.548.487.484-.548.546zm1.99-1.982-.001.001-1.009 1.006-.487-.484 1.008-1.003.001-.001c.023-.023.037-.05.051-.077.004-.008.012-.015.015-.023.01-.023.011-.049.015-.073.002-.014.008-.027.008-.041 0-.02-.007-.04-.011-.06-.004-.018-.004-.037-.011-.055a.309.309 0 0 0-.052-.079c-.006-.007-.008-.015-.014-.022l-.001-.001-.918-.914c-.01-.01-.022-.014-.033-.022-.016-.012-.032-.024-.05-.033s-.035-.014-.053-.019a.228.228 0 0 0-.059-.011c-.019-.001-.036.001-.055.003-.02.002-.039.005-.059.012s-.036.016-.054.026c-.011.006-.024.009-.035.016l-1.013.756-.515-.513 1.371-1.363 2.492 2.451-.53.525zm3.896-4.01c-.009-.001-.017.002-.026.002a.293.293 0 0 0-.066.004c-.017.003-.034.006-.05.012a.311.311 0 0 0-.102.062c-.007.006-.016.009-.023.017l-2.685 2.94-2.473-2.432 1.619-1.61a.305.305 0 0 0-.217-.52l-1.268.008.016-.919 1.774.015a3.972 3.972 0 0 0 3.578 1.13c.023.018.045.037.074.049l1.377.549.087.433.102.506-1.716-.244zm2.31.102-.179-.89.827-.617.217.287.325.431-1.189.789zm2.145-1.618-.479.449-.532-.706.475-.364a.42.42 0 0 1 .31-.082.41.41 0 0 1 .225.703z" style="fill:var(--color4, #2e2f42)"/>
      <path fill="#2e2f42" d="m36.344 17.454-1.225-1.219a.304.304 0 0 0-.43 0l-1.224 1.219a.308.308 0 0 0 0 .432l1.224 1.219a.304.304 0 0 0 .43 0l1.225-1.219a.307.307 0 0 0 0-.432zm-1.439 1.005-.792-.789.792-.789.793.789-.793.789zM38.379 9.755l-.147.592c.041.01.993.258.993 1.228h.609c0-1.153-.952-1.695-1.455-1.82zM39.835 12.184h-.609v.61h.609v-.61z" style="fill:var(--color4, #2e2f42)"/>
    </symbol>
    <symbol id="icon-Client-1" viewBox="0 0 61 32">
      <path fill="#8e8f99" style="fill: var(--color1, #8e8f99)" d="M25.455 8.364l2.548 2.428-4.73-0.002v11.778h12.364v-4.503l2.545 2.425v-12.125h-12.727zM35.524 17.779l-7.225-6.884h7.225v6.884zM33.281 20.844h-8.052v-7.921h0.569v7.385h7.483v0.537zM26.835 24.75l-0.3-0.617h-0.248l0.435 0.817v0.476h0.224v-0.476l0.435-0.817h-0.247l-0.3 0.617zM27.941 24.132h0.053l0.488 1.293h-0.234l-0.105-0.303h-0.5l-0.104 0.303h-0.233l0.487-1.293h0.149zM27.704 24.946h0.379l-0.189-0.548-0.189 0.548zM29.266 24.731c-0.004-0.005-0.013-0.016-0.022-0.028l-0.006-0.008c-0.029-0.037-0.055-0.078-0.076-0.123l-0.002-0.004c-0.017-0.038-0.027-0.081-0.027-0.128 0-0 0-0 0-0v0c0-0.067 0.014-0.125 0.041-0.174s0.068-0.087 0.117-0.111l0.002-0.001c0.051-0.027 0.111-0.040 0.178-0.040 0.066 0 0.123 0.013 0.17 0.040 0.090 0.047 0.15 0.14 0.15 0.247 0 0.040-0.008 0.078-0.024 0.112l0.001-0.002c-0.016 0.036-0.037 0.066-0.062 0.093l0-0c-0.027 0.029-0.057 0.055-0.088 0.078l-0.002 0.001-0.090 0.065 0.256 0.302c0.035-0.068 0.056-0.147 0.056-0.232 0-0.003-0-0.006-0-0.010v0h0.185c0 0.063-0.006 0.122-0.019 0.178-0.017 0.081-0.050 0.153-0.096 0.215l0.001-0.002 0.189 0.224h-0.247l-0.075-0.088c-0.038 0.029-0.082 0.054-0.129 0.072l-0.003 0.001c-0.058 0.021-0.126 0.033-0.196 0.033-0.002 0-0.003 0-0.005-0h0c-0.086 0-0.16-0.016-0.223-0.047-0.060-0.029-0.11-0.074-0.145-0.128l-0.001-0.001c-0.032-0.052-0.051-0.115-0.051-0.183 0-0.002 0-0.004 0-0.006v0c0-0.053 0.011-0.099 0.033-0.138 0.022-0.040 0.052-0.078 0.090-0.112 0.035-0.032 0.075-0.064 0.12-0.095zM29.372 24.861l-0.027 0.019c-0.027 0.021-0.050 0.045-0.069 0.073l-0.001 0.001c-0.023 0.034-0.036 0.075-0.036 0.12 0 0.036 0.009 0.070 0.025 0.1l-0.001-0.001c0.017 0.031 0.041 0.056 0.071 0.073l0.001 0c0.032 0.017 0.069 0.027 0.109 0.027 0.003 0 0.005-0 0.008-0h-0c0.049 0 0.097-0.011 0.143-0.033 0.025-0.012 0.046-0.026 0.066-0.041l-0.001 0.001-0.287-0.338zM29.423 24.625l0.079-0.053c0.032-0.019 0.058-0.044 0.079-0.072l0.001-0.001c0.015-0.024 0.024-0.053 0.024-0.085 0-0.002-0-0.004-0-0.006v0c-0.002-0.069-0.059-0.125-0.129-0.125-0.003 0-0.005 0-0.008 0l0-0c-0.001-0-0.002-0-0.004-0-0.053 0-0.098 0.031-0.119 0.076l-0 0.001c-0.010 0.022-0.015 0.047-0.015 0.073 0 0.031 0.008 0.060 0.021 0.086l-0-0.001c0.013 0.028 0.032 0.057 0.056 0.088l0.015 0.019zM31.685 25.004h-0.222c-0.005 0.053-0.020 0.101-0.042 0.145l0.001-0.002c-0.020 0.038-0.051 0.069-0.089 0.087l-0.001 0.001c-0.041 0.019-0.089 0.030-0.14 0.030-0.005 0-0.010-0-0.014-0l0.001 0c-0.002 0-0.005 0-0.007 0-0.046 0-0.090-0.012-0.128-0.032l0.001 0.001c-0.038-0.022-0.069-0.051-0.092-0.087l-0.001-0.001c-0.024-0.039-0.042-0.084-0.053-0.133l-0-0.003c-0.011-0.051-0.017-0.11-0.017-0.171 0-0.002 0-0.005 0-0.007v0-0.109c0-0.069 0.006-0.13 0.019-0.183s0.032-0.099 0.057-0.136c0.024-0.035 0.056-0.064 0.093-0.083l0.001-0.001c0.037-0.018 0.080-0.028 0.126-0.028 0.003 0 0.005 0 0.008 0h-0c0.062 0 0.112 0.011 0.151 0.032s0.067 0.051 0.087 0.091c0.020 0.039 0.033 0.087 0.039 0.143h0.222c-0.008-0.086-0.034-0.164-0.074-0.232l0.001 0.003c-0.040-0.067-0.096-0.121-0.163-0.156l-0.002-0.001c-0.071-0.036-0.155-0.057-0.244-0.057-0.006 0-0.012 0-0.018 0l0.001-0c-0.081 0-0.154 0.014-0.219 0.043s-0.12 0.069-0.166 0.124c-0.046 0.054-0.083 0.118-0.105 0.188l-0.001 0.004c-0.024 0.075-0.036 0.159-0.036 0.252v0.108c0 0.093 0.012 0.177 0.036 0.252s0.059 0.139 0.105 0.193c0.045 0.053 0.1 0.093 0.164 0.123s0.136 0.043 0.216 0.043c0.104 0 0.193-0.019 0.265-0.057s0.129-0.090 0.169-0.156c0.040-0.066 0.064-0.142 0.071-0.226zM32.918 24.814v-0.071c0-0.098-0.013-0.185-0.039-0.262-0.024-0.076-0.062-0.142-0.11-0.199l0.001 0.001c-0.046-0.053-0.102-0.096-0.167-0.124l-0.003-0.001c-0.065-0.029-0.138-0.044-0.218-0.044s-0.152 0.015-0.217 0.044c-0.065 0.028-0.122 0.070-0.17 0.125s-0.084 0.121-0.11 0.198c-0.025 0.075-0.039 0.161-0.039 0.25 0 0.004 0 0.008 0 0.012v-0.001 0.071c0 0.098 0.013 0.185 0.039 0.263 0.026 0.076 0.064 0.142 0.112 0.199l-0.001-0.001c0.048 0.055 0.105 0.096 0.17 0.125s0.138 0.043 0.217 0.043c0.080 0 0.153-0.015 0.218-0.043 0.065-0.029 0.122-0.071 0.169-0.125s0.084-0.12 0.109-0.198c0.025-0.077 0.038-0.165 0.038-0.263zM32.695 24.741v0.073c0 0.072-0.007 0.136-0.021 0.192-0.012 0.054-0.033 0.101-0.061 0.143l0.001-0.002c-0.025 0.036-0.058 0.065-0.096 0.085l-0.001 0.001c-0.037 0.018-0.081 0.028-0.126 0.028-0.002 0-0.004-0-0.006-0h0c-0.002 0-0.004 0-0.006 0-0.046 0-0.089-0.010-0.128-0.029l0.002 0.001c-0.040-0.021-0.073-0.050-0.099-0.085l-0.001-0.001c-0.028-0.040-0.049-0.087-0.062-0.138l-0.001-0.003c-0.014-0.055-0.022-0.117-0.022-0.182 0-0.004 0-0.007 0-0.011v0.001-0.073c0-0.072 0.007-0.136 0.021-0.191s0.035-0.102 0.061-0.139c0.025-0.036 0.058-0.065 0.097-0.084l0.002-0.001c0.037-0.019 0.080-0.029 0.127-0.029 0.002 0 0.004 0 0.005 0h-0c0.049 0 0.093 0.010 0.132 0.029s0.072 0.047 0.098 0.085c0.027 0.037 0.048 0.084 0.061 0.139 0.015 0.055 0.021 0.119 0.021 0.191z"></path>
    </symbol>   
    <symbol id="icon-Client-2" viewBox="0 0 61 32">
      <path fill="#8e8f99" style="fill: var(--color1, #8e8f99)" d="M29.86 7.976h-0.050c-0.063-0.004-0.143-0.007-0.223-0.008l-0.006-0h-0.165c-0.144 0-0.292 0.004-0.438 0.011-0.005-0-0.011-0.001-0.017-0.001s-0.012 0-0.017 0.001l0.001-0c-1.404 0.082-2.707 0.433-3.885 1.002l0.061-0.027-0.157 0.076v8.052l0.368-0.125c0.323-0.111 0.667-0.211 1.023-0.303 0.88-0.235 1.892-0.377 2.935-0.391l0.008-0v1.058c-0.132 0.001-0.259 0.004-0.387 0.011h-0.031c-0.827 0.046-1.601 0.171-2.347 0.366l0.082-0.018c-1.025 0.261-1.923 0.621-2.757 1.082l0.059-0.030v-10.326c0.815-0.484 1.758-0.879 2.756-1.135l0.075-0.016c0.8-0.215 1.718-0.34 2.665-0.344h0.158c0.186 0.005 0.367 0.013 0.537 0.026 0.448 0.032 0.893 0.103 1.329 0.212v1.041c-0.371-0.091-0.811-0.16-1.261-0.193l-0.027-0.002-0.027-0.002c-0.077-0.008-0.168-0.014-0.26-0.016l-0.003-0zM31.692 9.040c0.231 0.018 0.47 0.026 0.712 0.026 0.998-0.004 1.964-0.135 2.885-0.378l-0.080 0.018c1.025-0.261 1.922-0.622 2.757-1.082l-0.060 0.030v10.142c-0.815 0.484-1.758 0.879-2.756 1.135l-0.075 0.016c-0.8 0.214-1.718 0.339-2.666 0.343h-0.002c-0.019 0-0.042 0-0.066 0-0.695 0-1.37-0.087-2.014-0.251l0.056 0.012v-10.208c0.156 0.036 0.317 0.069 0.481 0.097 0.269 0.045 0.552 0.079 0.828 0.099zM36.853 9.119l-0.368 0.124c-0.338 0.114-0.68 0.216-1.023 0.306-0.916 0.245-1.969 0.388-3.054 0.392h-0.002c-0.24 0-0.461-0.007-0.674-0.020l-0.293-0.019v8.283l0.252 0.022c0.233 0.021 0.475 0.031 0.717 0.031 0.857-0.004 1.686-0.117 2.476-0.327l-0.068 0.015c0.722-0.183 1.348-0.415 1.941-0.703l-0.060 0.026 0.157-0.076v-8.054z"></path>
      <path fill="#8e8f99" style="fill: var(--color1, #8e8f99)" d="M24.632 22.259c-0.099-0.102-0.237-0.166-0.39-0.166-0.007 0-0.013 0-0.020 0l0.001-0c-0.002-0-0.005-0-0.008-0-0.082 0-0.161 0.016-0.232 0.046l0.004-0.001c-0.14 0.056-0.248 0.166-0.301 0.303l-0.001 0.004c-0.029 0.073-0.043 0.15-0.042 0.228v1.38c-0.004 0.097 0.015 0.194 0.054 0.283 0.033 0.071 0.080 0.134 0.138 0.185 0.055 0.046 0.12 0.080 0.189 0.098 0.067 0.019 0.137 0.028 0.206 0.028 0.077 0.001 0.153-0.016 0.223-0.048 0.207-0.092 0.349-0.296 0.349-0.533v-0.154h-0.361v0.123c0 0.003 0 0.005 0 0.008 0 0.041-0.008 0.081-0.022 0.117l0.001-0.002c-0.012 0.030-0.030 0.056-0.052 0.078l-0 0c-0.041 0.032-0.094 0.052-0.151 0.053h-0c-0.006 0.001-0.014 0.001-0.021 0.001-0.061 0-0.114-0.029-0.148-0.075l-0-0c-0.030-0.049-0.048-0.108-0.048-0.171 0-0.005 0-0.010 0-0.015l-0 0.001v-1.287c-0.002-0.071 0.013-0.142 0.044-0.206 0.033-0.051 0.090-0.085 0.155-0.085 0.008 0 0.015 0 0.022 0.001l-0.001-0c0.002-0 0.004-0 0.007-0 0.063 0 0.119 0.030 0.154 0.077l0 0c0.037 0.049 0.060 0.11 0.060 0.177 0 0.003-0 0.005-0 0.008v-0 0.119h0.357v-0.141c0-0.002 0-0.004 0-0.006 0-0.085-0.016-0.166-0.046-0.24l0.002 0.004c-0.028-0.075-0.069-0.14-0.121-0.194l0 0zM26.774 22.244c-0.11-0.094-0.253-0.151-0.41-0.152h-0c-0.073 0-0.147 0.013-0.215 0.039-0.149 0.053-0.266 0.163-0.329 0.302l-0.001 0.004c-0.036 0.084-0.055 0.175-0.053 0.267v1.323c-0.002 0.093 0.016 0.185 0.053 0.271 0.033 0.071 0.080 0.134 0.14 0.185 0.055 0.051 0.12 0.091 0.191 0.116 0.069 0.025 0.142 0.039 0.215 0.039 0.158-0 0.301-0.059 0.411-0.156l-0.001 0.001c0.057-0.052 0.104-0.115 0.136-0.185 0.037-0.085 0.055-0.178 0.052-0.271v-1.323c0-0.004 0-0.008 0-0.012 0-0.092-0.019-0.18-0.054-0.259l0.002 0.004c-0.034-0.076-0.079-0.14-0.136-0.193l-0-0zM26.606 24.027c0.001 0.006 0.001 0.013 0.001 0.020 0 0.067-0.028 0.128-0.072 0.171l-0 0c-0.046 0.038-0.105 0.062-0.17 0.062s-0.124-0.023-0.17-0.062l0 0c-0.045-0.043-0.073-0.104-0.073-0.17 0-0.007 0-0.015 0.001-0.022l-0 0.001v-1.323c-0.001-0.006-0.001-0.013-0.001-0.020 0-0.067 0.028-0.128 0.072-0.171l0-0c0.046-0.038 0.105-0.062 0.17-0.062s0.124 0.023 0.17 0.062l-0-0c0.045 0.043 0.073 0.104 0.073 0.171 0 0.007-0 0.014-0.001 0.021l0-0.001v1.324zM29.588 24.618v-2.505h-0.347l-0.456 1.326h-0.006l-0.459-1.326h-0.343v2.505h0.358v-1.524h0.006l0.351 1.077h0.179l0.353-1.077h0.007v1.524h0.358zM31.621 22.289c-0.055-0.062-0.125-0.109-0.202-0.137-0.073-0.025-0.158-0.039-0.246-0.039-0.005 0-0.010 0-0.014 0h-0.531v2.505h0.357v-0.979h0.184c0.112 0.005 0.222-0.019 0.322-0.068 0.082-0.046 0.148-0.111 0.195-0.189l0.001-0.002c0.041-0.067 0.069-0.141 0.082-0.218 0.012-0.079 0.019-0.17 0.019-0.262 0-0.008-0-0.016-0-0.024v0.001c0.004-0.12-0.008-0.241-0.035-0.358-0.025-0.090-0.071-0.168-0.132-0.23l0 0zM31.437 23.052c-0.002 0.048-0.014 0.093-0.034 0.132l0.001-0.002c-0.021 0.038-0.052 0.069-0.091 0.087l-0.001 0.001c-0.044 0.020-0.096 0.032-0.15 0.032-0.006 0-0.013-0-0.019-0l0.001 0h-0.163v-0.852h0.184c0.005-0 0.011-0 0.017-0 0.052 0 0.102 0.012 0.146 0.033l-0.002-0.001c0.037 0.021 0.066 0.053 0.083 0.091l0.001 0.001c0.020 0.044 0.030 0.092 0.031 0.14v0.167c0 0.058 0.004 0.119 0 0.172h-0.004zM33.312 22.113h-0.293l-0.552 2.505h0.357l0.105-0.538h0.487l0.105 0.538h0.357l-0.565-2.505zM32.983 23.739l0.176-0.908h0.007l0.175 0.908h-0.357zM35.618 23.622h-0.007l-0.539-1.509h-0.343v2.505h0.357v-1.507h0.007l0.545 1.506h0.336v-2.505h-0.357v1.509zM37.799 22.113l-0.287 0.996h-0.007l-0.287-0.996h-0.378l0.49 1.447v1.059h0.357v-1.059l0.49-1.446h-0.378zM23.636 25.325h0.172v0.483h0.117v-0.483h0.171v-0.099h-0.46v0.099zM25.083 25.226l-0.225 0.582h0.124l0.048-0.132h0.232l0.049 0.132h0.127l-0.231-0.582h-0.124zM25.064 25.578l0.079-0.216 0.079 0.216h-0.158zM26.512 25.593h0.135v0.075c-0.038 0.030-0.086 0.049-0.138 0.049h-0c-0.003 0-0.005 0-0.008 0-0.047 0-0.088-0.022-0.115-0.056l-0-0c-0.027-0.039-0.043-0.087-0.043-0.139 0-0.005 0-0.009 0-0.014l-0 0.001c0-0.129 0.056-0.194 0.167-0.194 0.004-0 0.008-0.001 0.013-0.001 0.057 0 0.105 0.039 0.119 0.093l0 0.001 0.115-0.022c-0.025-0.114-0.107-0.171-0.247-0.171-0.002-0-0.005-0-0.008-0-0.075 0-0.144 0.028-0.195 0.075l0-0c-0.052 0.051-0.084 0.123-0.084 0.202 0 0.008 0 0.015 0.001 0.023l-0-0.001c-0 0.004-0 0.009-0 0.014 0 0.078 0.028 0.15 0.075 0.205l-0-0c0.051 0.053 0.123 0.086 0.203 0.086 0.006 0 0.013-0 0.019-0.001l-0.001 0c0.003 0 0.006 0 0.010 0 0.091 0 0.175-0.035 0.237-0.093l-0 0v-0.229h-0.252v0.098zM27.972 25.226h-0.118v0.582h0.407v-0.099h-0.289v-0.483zM29.206 25.226h-0.117v0.582h0.117v-0.582zM30.413 25.615l-0.238-0.388h-0.114v0.582h0.109v-0.38l0.234 0.38h0.117v-0.582h-0.108v0.389zM31.504 25.552h0.29v-0.099h-0.29v-0.127h0.312v-0.099h-0.429v0.582h0.441v-0.099h-0.324v-0.157zM34.15 25.456h-0.229v-0.229h-0.116v0.581h0.116v-0.255h0.229v0.255h0.117v-0.582h-0.117v0.229zM35.247 25.552h0.291v-0.099h-0.291v-0.127h0.313v-0.099h-0.429v0.582h0.441v-0.099h-0.324v-0.157zM36.736 25.552c0.101-0.016 0.153-0.069 0.153-0.162 0.001-0.005 0.001-0.011 0.001-0.017 0-0.046-0.023-0.087-0.058-0.112l-0-0c-0.043-0.022-0.094-0.035-0.147-0.035-0.008 0-0.016 0-0.024 0.001l0.001-0h-0.247v0.581h0.117v-0.243h0.023c0.003-0 0.006-0 0.009-0 0.023 0 0.045 0.005 0.064 0.014l-0.001-0c0.017 0.011 0.031 0.025 0.041 0.043l0.127 0.185h0.14l-0.071-0.113c-0.032-0.057-0.075-0.104-0.127-0.139l-0.001-0.001zM36.618 25.471h-0.086v-0.146h0.092c0.007-0.001 0.016-0.001 0.025-0.001 0.034 0 0.066 0.005 0.096 0.015l-0.002-0.001c0.016 0.014 0.025 0.035 0.025 0.057 0 0.013-0.003 0.025-0.009 0.036l0-0c-0.006 0.010-0.013 0.019-0.022 0.025l-0 0c-0.029 0.009-0.063 0.015-0.097 0.015-0.008 0-0.015-0-0.023-0.001l0.001 0zM37.858 25.552h0.289v-0.099h-0.289v-0.127h0.313v-0.099h-0.431v0.582h0.441v-0.099h-0.324v-0.157z"></path>
    </symbol>
    <symbol id="icon-Client-3" viewBox="0 0 61 32">
      <path fill="#8e8f99" style="fill: var(--color1, #8e8f99)" d="M25.022 23.717c0.006 0 0.012 0.001 0.017 0.004s0.010 0.005 0.015 0.008l-0-0 0.080 0.076c-0.063 0.061-0.138 0.109-0.221 0.142l-0.005 0.002c-0.102 0.036-0.211 0.054-0.32 0.051-0.005 0-0.011 0-0.016 0-0.102 0-0.2-0.018-0.291-0.050l0.006 0.002c-0.088-0.031-0.163-0.078-0.227-0.136l0 0c-0.062-0.057-0.111-0.127-0.145-0.205l-0.002-0.004c-0.032-0.077-0.051-0.167-0.051-0.261 0-0.003 0-0.005 0-0.008v0c-0-0.003-0-0.006-0-0.009 0-0.094 0.020-0.184 0.057-0.265l-0.002 0.004c0.035-0.078 0.088-0.149 0.155-0.209 0.068-0.058 0.148-0.105 0.236-0.135l0.005-0.002c0.090-0.030 0.193-0.048 0.3-0.048 0.004 0 0.007 0 0.011 0h-0.001c0.098-0.002 0.196 0.013 0.288 0.044 0.080 0.030 0.153 0.071 0.216 0.121l-0.067 0.081c-0.005 0.006-0.010 0.011-0.017 0.014l-0 0c-0.007 0.004-0.015 0.006-0.023 0.006-0.001 0-0.003-0-0.004-0h0c-0.011-0.001-0.021-0.004-0.029-0.009l0 0-0.036-0.021-0.050-0.027c-0.046-0.022-0.099-0.039-0.155-0.048l-0.003-0c-0.033-0.005-0.071-0.008-0.11-0.008-0.004 0-0.007 0-0.011 0h0.001c-0.002-0-0.005-0-0.008-0-0.077 0-0.151 0.013-0.22 0.037l0.005-0.001c-0.067 0.023-0.126 0.058-0.175 0.102l0.001-0c-0.050 0.047-0.089 0.102-0.113 0.161-0.026 0.061-0.041 0.131-0.041 0.206 0 0.003 0 0.005 0 0.007v-0c-0 0.002-0 0.005-0 0.008 0 0.075 0.015 0.146 0.043 0.211l-0.001-0.004c0.052 0.123 0.151 0.217 0.275 0.259l0.003 0.001c0.065 0.023 0.136 0.035 0.207 0.034 0.041 0.001 0.082-0.002 0.123-0.007 0.102-0.010 0.193-0.050 0.266-0.111l-0.001 0.001c0.010-0.008 0.024-0.013 0.038-0.014h0zM27.34 23.338c0.001 0.091-0.017 0.182-0.054 0.267-0.036 0.082-0.087 0.151-0.151 0.207l-0.001 0.001c-0.067 0.059-0.148 0.105-0.237 0.136-0.091 0.030-0.196 0.048-0.305 0.048s-0.214-0.018-0.312-0.050l0.007 0.002c-0.091-0.032-0.17-0.078-0.237-0.137l0.001 0.001c-0.064-0.057-0.116-0.127-0.151-0.205l-0.002-0.004c-0.034-0.079-0.054-0.171-0.054-0.267s0.020-0.188 0.056-0.272l-0.002 0.004c0.035-0.078 0.086-0.149 0.153-0.21 0.067-0.057 0.148-0.102 0.236-0.131 0.196-0.065 0.414-0.065 0.61 0 0.089 0.031 0.17 0.077 0.237 0.136 0.127 0.113 0.206 0.277 0.206 0.459 0 0.006-0 0.011-0 0.017l0-0.001zM27.129 23.338c0.002-0.073-0.011-0.145-0.038-0.215-0.049-0.125-0.149-0.22-0.274-0.261l-0.003-0.001c-0.066-0.022-0.143-0.035-0.222-0.035s-0.156 0.013-0.227 0.037l0.005-0.001c-0.066 0.023-0.123 0.058-0.17 0.102l0-0c-0.047 0.044-0.084 0.097-0.107 0.157l-0.001 0.003c-0.051 0.14-0.051 0.289 0 0.429 0.023 0.059 0.060 0.114 0.108 0.16 0.047 0.044 0.105 0.078 0.17 0.1 0.143 0.046 0.3 0.046 0.444 0 0.064-0.022 0.123-0.056 0.169-0.1 0.048-0.047 0.085-0.101 0.108-0.16 0.027-0.069 0.040-0.142 0.038-0.215zM28.923 23.563l0.021 0.048c0.008-0.017 0.015-0.033 0.023-0.048 0.008-0.016 0.016-0.032 0.026-0.047l0.513-0.796c0.010-0.014 0.019-0.023 0.029-0.025s0.022-0.004 0.034-0.004c0.003 0 0.006 0 0.008 0l-0-0h0.152v1.296h-0.18v-0.993c-0-0.007-0.001-0.015-0.001-0.022s0-0.016 0.001-0.023l-0 0.001-0.516 0.808c-0.007 0.013-0.017 0.023-0.030 0.029l-0 0c-0.013 0.007-0.027 0.011-0.043 0.011-0 0-0 0-0.001 0h-0.029c-0 0-0.001 0-0.001 0-0.016 0-0.031-0.004-0.044-0.011l0 0c-0.013-0.007-0.023-0.017-0.030-0.029l-0-0-0.531-0.813v1.040h-0.174v-1.293h0.152c0.002-0 0.004-0 0.006-0 0.013 0 0.025 0.002 0.036 0.005l-0.001-0c0.012 0.005 0.022 0.014 0.028 0.024l0 0 0.524 0.797c0.011 0.015 0.019 0.030 0.027 0.047zM30.853 23.499v0.485h-0.201v-1.294h0.447c0.085-0.001 0.169 0.008 0.25 0.028 0.065 0.016 0.125 0.043 0.177 0.080 0.043 0.033 0.077 0.076 0.099 0.125l0.001 0.002c0.024 0.053 0.035 0.109 0.034 0.165 0 0.002 0 0.004 0 0.006 0 0.118-0.057 0.223-0.145 0.288l-0.001 0.001c-0.051 0.038-0.11 0.068-0.175 0.085l-0.004 0.001c-0.078 0.021-0.16 0.031-0.241 0.030l-0.243-0.004zM30.853 23.36h0.243c0.053 0 0.105-0.006 0.155-0.020 0.043-0.012 0.081-0.031 0.114-0.056l-0.001 0.001c0.056-0.045 0.092-0.114 0.092-0.192 0-0.001 0-0.002-0-0.003v0c0-0.004 0-0.009 0-0.013 0-0.034-0.008-0.065-0.021-0.094l0.001 0.001c-0.017-0.035-0.041-0.065-0.070-0.088l-0-0c-0.067-0.044-0.15-0.071-0.238-0.071-0.011 0-0.022 0-0.033 0.001l0.001-0h-0.243v0.533zM33.551 23.986h-0.159c-0.001 0-0.002 0-0.003 0-0.015 0-0.030-0.005-0.041-0.012l0 0c-0.011-0.008-0.020-0.018-0.026-0.029l-0-0-0.136-0.313h-0.686l-0.141 0.313c-0.006 0.012-0.014 0.022-0.025 0.029l-0 0c-0.012 0.008-0.027 0.013-0.043 0.013-0.001 0-0.002 0-0.002-0h-0.158l0.602-1.296h0.209l0.61 1.296zM32.557 23.505h0.566l-0.239-0.527c-0.016-0.034-0.032-0.074-0.044-0.116l-0.002-0.006-0.023 0.068c-0.007 0.021-0.015 0.039-0.022 0.055l-0.237 0.527zM34.418 22.696c0.012 0.006 0.022 0.014 0.030 0.023l0 0 0.879 0.977v-1.006h0.18v1.296h-0.1c-0.001 0-0.003 0-0.004 0-0.014 0-0.026-0.003-0.038-0.008l0.001 0c-0.012-0.006-0.023-0.015-0.032-0.024l-0-0-0.877-0.976c0 0.007 0.001 0.015 0.001 0.022s-0 0.016-0.001 0.023l0-0.001v0.963h-0.18v-1.296h0.106c0.012-0 0.025 0.001 0.036 0.006zM36.985 23.471v0.515h-0.201v-0.515l-0.555-0.78h0.18c0.001-0 0.003-0 0.005-0 0.014 0 0.028 0.004 0.039 0.011l-0-0c0.011 0.008 0.020 0.018 0.027 0.029l0.347 0.504c0.023 0.033 0.043 0.071 0.060 0.111l0.002 0.004 0.026-0.056c0.010-0.020 0.021-0.040 0.034-0.059l0.343-0.507c0.007-0.011 0.016-0.020 0.026-0.027l0-0c0.011-0.008 0.025-0.013 0.040-0.013 0.001 0 0.002 0 0.003 0h0.182l-0.556 0.784zM28.823 20.515c0.087 0.009 0.176 0.017 0.265 0.024 1.354-0.517 2.5-1.365 3.294-2.436s1.201-2.318 1.169-3.585l-1.492-1.275c0.303 1.349 0.161 2.744-0.41 4.029s-1.55 2.407-2.826 3.244z"></path>
      <path fill="#8e8f99" style="fill: var(--color1, #8e8f99)" d="M28.29 20.456l0.040 0.007c1.364-0.833 2.404-1.997 2.985-3.341s0.677-2.805 0.276-4.196l-2.126-1.816c0.86 1.493 1.206 3.164 0.998 4.818s-0.961 3.225-2.173 4.528zM35.5 16.015c-0.361 1.393-1.239 2.649-2.501 3.582-0.344 0.258-0.733 0.5-1.143 0.708l-0.045 0.021c1.028-0.258 1.974-0.715 2.763-1.335s1.401-1.386 1.789-2.24l-0.862-0.736z"></path>
      <path fill="#8e8f99" style="fill: var(--color1, #8e8f99)" d="M35.162 15.81l-1.228-1.049c-0.024 1.196-0.421 2.364-1.152 3.384s-1.768 1.854-3.004 2.416h0.006c0.275 0 0.551-0.014 0.824-0.042 1.155-0.403 2.175-1.044 2.97-1.865s1.339-1.799 1.584-2.844zM28.468 10.344l-1.464-1.253c-1.309 0.432-2.435 1.192-3.231 2.18s-1.223 2.159-1.227 3.357c0.005 1.325 0.527 2.611 1.484 3.654s2.293 1.784 3.797 2.105c1.343-1.399 2.13-3.126 2.245-4.932s-0.447-3.596-1.604-5.111zM38.545 15.617c-0.005-1.572-0.739-3.079-2.040-4.19s-3.064-1.738-4.904-1.743c-0.005 0-0.010 0-0.016 0-0.883 0-1.733 0.145-2.526 0.412l0.056-0.016 8.967 7.661c0.292-0.623 0.463-1.353 0.464-2.123v-0z"></path>
    </symbol>
    <symbol id="icon-Client-4" viewBox="0 0 61 32">
      <path fill="#8e8f99" style="fill: var(--color1, #8e8f99)" d="M20.392 13.643h-0.001c-0.867 0-1.571 0.634-1.571 1.416v0.001c0 0.782 0.704 1.416 1.571 1.416h0.001c0.868 0 1.571-0.634 1.571-1.416v-0.001c0-0.782-0.703-1.416-1.571-1.416zM31.986 13.19c-0.002-1.087-0.482-2.127-1.334-2.896s-2.007-1.201-3.212-1.203c-1.205 0.002-2.36 0.435-3.213 1.203s-1.332 1.81-1.335 2.896v5.991s9.092-0.913 9.093-5.989v-0.001zM15.636 21.147c0.002 0.756 0.336 1.48 0.929 2.015s1.396 0.836 2.235 0.838c0.838-0.002 1.641-0.303 2.234-0.838s0.927-1.258 0.929-2.015v-4.168s-6.327 0.635-6.327 4.167zM18.8 21.894c-0.164 0-0.324-0.044-0.46-0.126-0.133-0.079-0.238-0.194-0.303-0.331l-0.002-0.005c-0.040-0.084-0.063-0.182-0.063-0.286 0-0.052 0.006-0.102 0.017-0.15l-0.001 0.005c0.036-0.153 0.116-0.284 0.226-0.382l0.001-0.001c0.115-0.103 0.26-0.175 0.419-0.204l0.005-0.001c0.16-0.029 0.327-0.014 0.479 0.043s0.281 0.152 0.372 0.275c0.091 0.123 0.14 0.267 0.14 0.415 0 0.098-0.021 0.196-0.062 0.287s-0.103 0.173-0.179 0.243c-0.076 0.068-0.165 0.123-0.263 0.161l-0.006 0.002c-0.094 0.036-0.203 0.057-0.317 0.057-0 0-0.001 0-0.001 0h0v-0.003zM24.585 20.551v1.551h-0.32v-1.551h0.32zM25.203 21.213v0.249h-0.705v-0.249h0.705zM25.277 20.551v0.25h-0.779v-0.25h0.78zM26.737 21.29v0.073c0 0.118-0.016 0.224-0.048 0.317-0.031 0.093-0.077 0.173-0.136 0.241l0.001-0.001c-0.058 0.065-0.128 0.115-0.209 0.15-0.076 0.033-0.165 0.052-0.258 0.052-0.003 0-0.007-0-0.010-0h0c-0.097 0-0.186-0.017-0.267-0.052-0.082-0.036-0.152-0.087-0.208-0.15l-0-0.001c-0.059-0.067-0.106-0.147-0.136-0.235l-0.001-0.005c-0.030-0.091-0.048-0.195-0.048-0.303 0-0.005 0-0.010 0-0.015v0.001-0.073c0-0.119 0.016-0.224 0.048-0.317 0.031-0.092 0.077-0.172 0.136-0.241l-0.001 0.001c0.059-0.066 0.128-0.116 0.209-0.151s0.17-0.052 0.268-0.052c0.098 0 0.187 0.017 0.267 0.052s0.151 0.085 0.209 0.151c0.059 0.066 0.104 0.146 0.136 0.24 0.033 0.093 0.049 0.199 0.049 0.317zM26.414 21.364v-0.076c0-0.082-0.007-0.155-0.022-0.217-0.013-0.060-0.036-0.113-0.067-0.16l0.001 0.002c-0.027-0.040-0.063-0.073-0.105-0.095l-0.002-0.001c-0.040-0.021-0.087-0.033-0.137-0.033-0.002 0-0.004 0-0.006 0h0c-0.054 0-0.102 0.011-0.144 0.033-0.043 0.023-0.079 0.056-0.105 0.095l-0.001 0.001c-0.029 0.045-0.052 0.098-0.064 0.155l-0.001 0.003c-0.014 0.061-0.022 0.131-0.022 0.204 0 0.005 0 0.010 0 0.014v-0.001 0.076c0 0.082 0.007 0.154 0.022 0.217s0.037 0.115 0.066 0.159c0.029 0.043 0.065 0.075 0.107 0.097s0.090 0.033 0.144 0.033c0.054 0 0.102-0.011 0.144-0.033 0.043-0.023 0.079-0.056 0.105-0.096l0.001-0.001c0.028-0.044 0.050-0.096 0.065-0.159 0.014-0.061 0.022-0.132 0.022-0.204 0-0.005-0-0.009-0-0.014v0.001zM27.775 21.696c0-0.001 0-0.002 0-0.003 0-0.026-0.005-0.050-0.013-0.073l0 0.001c-0.009-0.025-0.025-0.046-0.044-0.062l-0-0c-0.027-0.022-0.057-0.041-0.090-0.055l-0.003-0.001c-0.041-0.019-0.092-0.039-0.145-0.055l-0.009-0.002c-0.082-0.026-0.148-0.052-0.213-0.082l0.012 0.005c-0.063-0.029-0.118-0.062-0.168-0.1l0.002 0.001c-0.046-0.037-0.083-0.081-0.112-0.131l-0.001-0.002c-0.026-0.049-0.041-0.107-0.041-0.168 0-0.003 0-0.005 0-0.008v0c-0-0.001-0-0.003-0-0.005 0-0.063 0.016-0.121 0.044-0.173l-0.001 0.002c0.028-0.053 0.068-0.099 0.119-0.136 0.051-0.039 0.112-0.068 0.181-0.089 0.071-0.020 0.147-0.031 0.231-0.031 0.114 0 0.214 0.021 0.299 0.062s0.151 0.098 0.198 0.169c0.047 0.072 0.071 0.154 0.071 0.246h-0.317c0-0.002 0-0.004 0-0.005 0-0.042-0.011-0.081-0.029-0.115l0.001 0.001c-0.019-0.036-0.049-0.064-0.084-0.082l-0.001-0c-0.038-0.019-0.084-0.030-0.132-0.030-0.004 0-0.008 0-0.012 0l0.001-0c-0.003-0-0.007-0-0.011-0-0.046 0-0.090 0.009-0.13 0.026l0.002-0.001c-0.035 0.014-0.063 0.037-0.083 0.067l-0 0.001c-0.017 0.026-0.027 0.057-0.027 0.091 0 0.001 0 0.002 0 0.003v-0c0 0.026 0.006 0.050 0.019 0.071 0.016 0.024 0.036 0.044 0.059 0.059l0.001 0c0.026 0.019 0.058 0.036 0.097 0.052s0.083 0.032 0.133 0.048c0.085 0.025 0.159 0.054 0.223 0.086s0.119 0.068 0.162 0.108c0.044 0.040 0.076 0.085 0.098 0.135s0.033 0.108 0.033 0.172c0 0.004 0 0.010 0 0.015 0 0.123-0.060 0.233-0.153 0.301l-0.001 0.001c-0.049 0.037-0.109 0.065-0.178 0.084s-0.146 0.029-0.231 0.029c-0.076 0-0.152-0.010-0.227-0.030-0.077-0.021-0.145-0.053-0.206-0.094l0.002 0.002c-0.060-0.041-0.108-0.094-0.144-0.155l-0.001-0.002c-0.036-0.064-0.054-0.14-0.054-0.227h0.321c0 0.048 0.007 0.089 0.022 0.123s0.036 0.060 0.062 0.080l0 0c0.028 0.020 0.061 0.036 0.096 0.044l0.002 0c0.038 0.009 0.080 0.014 0.125 0.014 0.004 0 0.008 0 0.012 0 0.045 0 0.088-0.009 0.127-0.024l-0.002 0.001c0.063-0.025 0.107-0.086 0.107-0.157 0-0.001 0-0.002-0-0.002v0zM29.005 20.551v1.551h-0.319v-1.551h0.319zM29.483 20.551v0.25h-1.265v-0.25h1.265zM30.705 21.853v0.249h-0.825v-0.249h0.825zM29.984 20.551v1.551h-0.32v-1.551h0.32zM30.598 21.183v0.243h-0.718v-0.243h0.718zM30.704 20.551v0.25h-0.825v-0.25h0.825zM30.892 20.551h0.578c0.119 0 0.221 0.018 0.306 0.053 0.086 0.036 0.152 0.088 0.198 0.158s0.069 0.155 0.069 0.257c0 0.083-0.014 0.155-0.043 0.214s-0.068 0.109-0.117 0.147l-0.001 0.001c-0.051 0.039-0.11 0.071-0.174 0.093l-0.004 0.001-0.101 0.053h-0.503l-0.002-0.249h0.374c0.003 0 0.007 0 0.011 0 0.047 0 0.091-0.011 0.131-0.031l-0.002 0.001c0.036-0.019 0.064-0.047 0.083-0.082l0-0.001c0.018-0.034 0.029-0.075 0.029-0.118 0-0.002-0-0.004-0-0.006v0c0-0.002 0-0.005 0-0.007 0-0.044-0.010-0.086-0.028-0.123l0.001 0.002c-0.019-0.036-0.048-0.065-0.083-0.082l-0.001-0c-0.039-0.018-0.084-0.029-0.132-0.029-0.004 0-0.007 0-0.011 0h-0.258v1.301h-0.319v-1.551zM31.759 22.102l-0.353-0.692 0.337-0.002 0.358 0.679v0.015h-0.342zM33.437 21.549h-0.395v-0.249h0.395c0.004 0 0.008 0 0.013 0 0.050 0 0.096-0.011 0.138-0.031l-0.002 0.001c0.037-0.019 0.065-0.049 0.084-0.084l0.001-0.001c0.017-0.037 0.026-0.080 0.026-0.126s-0.010-0.089-0.027-0.128l0.001 0.002c-0.018-0.040-0.047-0.073-0.083-0.095l-0.001-0.001c-0.039-0.023-0.087-0.037-0.137-0.037-0.004 0-0.008 0-0.012 0l0.001-0h-0.285v1.301h-0.32v-1.551h0.604c0.121 0 0.225 0.022 0.312 0.066 0.087 0.043 0.154 0.103 0.2 0.18s0.069 0.164 0.069 0.263c0 0.1-0.023 0.187-0.069 0.26s-0.113 0.13-0.2 0.169c-0.087 0.040-0.191 0.060-0.313 0.060zM35.28 21.853v0.249h-0.825v-0.249h0.825zM34.559 20.551v1.551h-0.32v-1.551h0.32zM35.172 21.183v0.243h-0.718v-0.243h0.718zM35.279 20.551v0.25h-0.824v-0.25h0.824zM36.181 20.551v1.551h-0.319v-1.551h0.319zM36.659 20.551v0.25h-1.265v-0.25h1.265zM37.881 21.853v0.249h-0.825v-0.249h0.825zM37.16 20.551v1.551h-0.32v-1.551h0.32zM37.774 21.183v0.243h-0.718v-0.243h0.718zM37.88 20.551v0.25h-0.824v-0.25h0.824zM38.068 20.551h0.579c0.119 0 0.22 0.018 0.306 0.053s0.152 0.088 0.198 0.158 0.069 0.155 0.069 0.257c0 0.083-0.014 0.155-0.043 0.214s-0.068 0.109-0.117 0.147l-0.001 0.001c-0.051 0.039-0.11 0.071-0.174 0.093l-0.004 0.001-0.101 0.053h-0.503l-0.002-0.249h0.374c0.003 0 0.007 0 0.011 0 0.047 0 0.091-0.011 0.13-0.031l-0.002 0.001c0.036-0.019 0.064-0.047 0.083-0.082l0.001-0.001c0.018-0.034 0.029-0.075 0.029-0.118 0-0.002-0-0.004-0-0.006v0c0-0.002 0-0.005 0-0.007 0-0.044-0.010-0.086-0.028-0.123l0.001 0.002c-0.019-0.036-0.048-0.065-0.083-0.082l-0.001-0c-0.038-0.018-0.084-0.029-0.131-0.029-0.004 0-0.007 0-0.011 0h-0.258v1.301h-0.32v-1.551zM38.935 22.102l-0.354-0.692 0.338-0.002 0.358 0.679v0.015h-0.342zM40.273 21.696c0-0.001 0-0.003 0-0.004 0-0.025-0.005-0.050-0.013-0.072l0 0.001c-0.009-0.025-0.025-0.046-0.044-0.062l-0-0c-0.027-0.022-0.057-0.041-0.090-0.055l-0.002-0.001c-0.041-0.019-0.092-0.039-0.145-0.055l-0.009-0.002c-0.082-0.026-0.148-0.052-0.212-0.082l0.012 0.005c-0.063-0.029-0.118-0.062-0.168-0.1l0.002 0.001c-0.046-0.037-0.084-0.081-0.112-0.131l-0.001-0.002c-0.026-0.049-0.040-0.106-0.040-0.168 0-0.003 0-0.006 0-0.008v0c0-0.065 0.014-0.123 0.043-0.176 0.030-0.055 0.070-0.1 0.118-0.136l0.001-0.001c0.051-0.039 0.112-0.068 0.181-0.089 0.067-0.020 0.144-0.031 0.223-0.031 0.003 0 0.006 0 0.008 0h-0c0.114 0 0.214 0.021 0.299 0.062s0.151 0.098 0.198 0.169c0.048 0.072 0.071 0.154 0.071 0.246h-0.317c0-0.002 0-0.004 0-0.006 0-0.042-0.011-0.081-0.029-0.115l0.001 0.001c-0.019-0.036-0.049-0.064-0.084-0.082l-0.001-0c-0.038-0.019-0.084-0.030-0.132-0.030-0.004 0-0.008 0-0.012 0l0.001-0c-0.003-0-0.007-0-0.011-0-0.046 0-0.090 0.009-0.13 0.026l0.002-0.001c-0.034 0.014-0.062 0.037-0.083 0.067l-0 0.001c-0.017 0.026-0.028 0.057-0.028 0.091 0 0.001 0 0.002 0 0.003v-0c0 0.026 0.006 0.050 0.019 0.071 0.016 0.024 0.036 0.044 0.059 0.059l0.001 0c0.026 0.019 0.059 0.036 0.097 0.052s0.083 0.032 0.133 0.048c0.085 0.025 0.159 0.054 0.223 0.086s0.119 0.068 0.162 0.108 0.076 0.085 0.098 0.135c0.022 0.051 0.033 0.108 0.033 0.172 0 0.067-0.013 0.128-0.039 0.181-0.027 0.055-0.066 0.1-0.113 0.135l-0.001 0.001c-0.051 0.037-0.11 0.066-0.174 0.083l-0.004 0.001c-0.069 0.019-0.146 0.029-0.231 0.029-0.076 0-0.152-0.010-0.227-0.030-0.077-0.021-0.145-0.053-0.206-0.094l0.002 0.002c-0.060-0.041-0.109-0.094-0.144-0.155l-0.001-0.002c-0.034-0.062-0.054-0.137-0.054-0.216 0-0.004 0-0.008 0-0.012v0.001h0.321c0 0.048 0.007 0.089 0.022 0.123s0.036 0.060 0.062 0.080l0 0c0.028 0.020 0.061 0.036 0.096 0.044l0.002 0c0.038 0.009 0.080 0.014 0.125 0.014 0.004 0 0.008 0 0.012 0 0.045 0 0.087-0.009 0.126-0.024l-0.002 0.001c0.063-0.025 0.107-0.086 0.107-0.156 0-0.001 0-0.002-0-0.003v0z"></path>
    </symbol>
    <symbol id="icon-Client-5" viewBox="0 0 61 32">
      <path fill="#8e8f99" style="fill: var(--color1, #8e8f99)" d="M21.379 21.954c0.089 0.1 0.137 0.224 0.135 0.352 0.004 0.083-0.012 0.167-0.048 0.244s-0.091 0.145-0.16 0.201c-0.152 0.103-0.34 0.164-0.541 0.164-0.022 0-0.045-0.001-0.067-0.002l0.003 0h-1.064v-2.23h1.042c0.018-0.001 0.040-0.002 0.061-0.002 0.191 0 0.37 0.056 0.52 0.152l-0.004-0.002c0.068 0.051 0.121 0.115 0.156 0.187s0.051 0.151 0.047 0.23c0.006 0.123-0.037 0.244-0.121 0.341-0.082 0.088-0.191 0.15-0.313 0.174l-0.004 0.001c0.141 0.023 0.268 0.091 0.359 0.191zM20.131 21.617h0.445c0.101 0.007 0.201-0.019 0.283-0.074 0.032-0.026 0.058-0.059 0.076-0.097l0.001-0.002c0.013-0.029 0.020-0.062 0.020-0.097 0-0.008-0-0.016-0.001-0.023l0 0.001c0-0.006 0.001-0.012 0.001-0.019 0-0.036-0.008-0.070-0.021-0.101l0.001 0.002c-0.017-0.040-0.043-0.073-0.074-0.099l-0-0c-0.072-0.048-0.16-0.076-0.255-0.076-0.013 0-0.025 0-0.038 0.002l0.002-0h-0.439v0.585zM20.903 22.472c0.035-0.027 0.063-0.061 0.081-0.101l0.001-0.002c0.015-0.031 0.024-0.068 0.024-0.107 0-0.006-0-0.012-0.001-0.018l0 0.001c0-0.005 0-0.010 0-0.016 0-0.040-0.009-0.078-0.026-0.112l0.001 0.002c-0.020-0.041-0.048-0.076-0.083-0.102l-0.001-0c-0.077-0.051-0.171-0.082-0.273-0.082-0.010 0-0.021 0-0.031 0.001l0.001-0h-0.468v0.613h0.473c0.107 0.005 0.212-0.022 0.299-0.077zM23.509 22.913l-0.58-0.872h-0.218v0.871h-0.498v-2.23h0.944c0.020-0.001 0.044-0.002 0.068-0.002 0.221 0 0.426 0.072 0.592 0.194l-0.003-0.002c0.132 0.121 0.212 0.281 0.224 0.45s-0.042 0.337-0.154 0.473c-0.116 0.12-0.275 0.2-0.45 0.227l0.617 0.891h-0.542zM22.711 21.737h0.408c0.283 0 0.425-0.113 0.425-0.338 0-0.005 0.001-0.012 0.001-0.018 0-0.042-0.009-0.082-0.024-0.119l0.001 0.002c-0.019-0.045-0.047-0.084-0.081-0.115l-0-0c-0.078-0.057-0.175-0.092-0.281-0.092-0.014 0-0.028 0.001-0.042 0.002l0.002-0h-0.413l0.005 0.679zM26.234 22.464h-0.994l-0.176 0.449h-0.523l0.913-2.205h0.565l0.909 2.205h-0.523l-0.172-0.449zM26.101 22.126l-0.363-0.941-0.363 0.941h0.726zM29.645 22.913h-0.495l-1.11-1.516v1.516h-0.494v-2.23h0.494l1.109 1.525v-1.525h0.495v2.23zM32.469 22.379c-0.108 0.172-0.26 0.307-0.441 0.391l-0.006 0.003c-0.215 0.098-0.455 0.146-0.696 0.14h-0.881v-2.23h0.881c0.012-0 0.027-0.001 0.041-0.001 0.237 0 0.462 0.051 0.665 0.142l-0.010-0.004c0.189 0.086 0.345 0.222 0.448 0.389 0.102 0.181 0.155 0.382 0.155 0.585-0.001 0.215-0.058 0.417-0.158 0.591l0.003-0.006zM31.903 22.325c0.134-0.137 0.217-0.325 0.219-0.532v-0c-0.002-0.207-0.085-0.395-0.219-0.532l0 0c-0.154-0.119-0.35-0.192-0.563-0.192-0.020 0-0.040 0.001-0.060 0.002l0.003-0h-0.344v1.444h0.344c0.017 0.001 0.037 0.002 0.057 0.002 0.213 0 0.408-0.072 0.564-0.193l-0.002 0.002zM26.544 8.279s6.388 2.171 6.252 5.313v5.314s-6.383-2.172-6.251-5.314l-0.003-5.313zM38.487 17.662c1.207-0.748 2.602-1.211 4.059-1.347v-1.664c-1.679 0.583-3.102 1.638-4.059 3.010z"></path>
      <path fill="#8e8f99" style="fill: var(--color1, #8e8f99)" d="M37.762 18.163c0.987-1.79 2.699-3.171 4.783-3.86v-4.793s-9.097 3.093-8.905 7.567v7.566s0.405-0.138 1.043-0.398c0-0.242 0-0.486 0.029-0.731 0.188-2.077 1.285-4.002 3.049-5.351z"></path>
      <path fill="#8e8f99" style="fill: var(--color1, #8e8f99)" d="M36.897 20.973c0.048-0.525 0.155-1.044 0.319-1.549-1.099 1.165-1.764 2.611-1.903 4.134-0.013 0.144-0.020 0.287-0.024 0.436 0.762-0.328 1.337-0.605 1.901-0.902l-0.151 0.072c-0.109-0.465-0.171-0.998-0.171-1.546 0-0.227 0.011-0.452 0.032-0.673l-0.002 0.028zM37.259 21.001c-0.018 0.184-0.028 0.397-0.028 0.613 0 0.485 0.051 0.959 0.148 1.415l-0.008-0.044c2.485-1.339 5.278-3.407 5.171-5.908v-0.218c-1.776 0.179-3.437 0.878-4.729 1.989-0.285 0.629-0.482 1.359-0.552 2.126l-0.002 0.027z"></path>
    </symbol>
    <symbol id="icon-Client-6" viewBox="0 0 61 32">
      <path fill="#8e8f99" style="fill: var(--color1, #8e8f99)" d="M31.102 15.797c-0.139-0.179-0.223-0.407-0.223-0.655 0-0.024 0.001-0.049 0.002-0.073l-0 0.003v-1.050c0-0.322 0.073-0.567 0.219-0.734s0.397-0.251 0.753-0.25c0.335 0 0.572 0.071 0.712 0.214 0.153 0.182 0.227 0.404 0.21 0.628v0.247h-0.598v-0.25c0.002-0.082-0.004-0.164-0.017-0.245-0.010-0.059-0.041-0.11-0.085-0.145l-0-0c-0.054-0.036-0.12-0.057-0.191-0.057-0.009 0-0.018 0-0.027 0.001l0.001-0c-0.008-0.001-0.017-0.001-0.026-0.001-0.075 0-0.145 0.023-0.203 0.061l0.001-0.001c-0.049 0.040-0.085 0.095-0.099 0.158l-0 0.002c-0.015 0.072-0.024 0.155-0.024 0.239 0 0.007 0 0.014 0 0.022v-0.001 1.275c-0.001 0.014-0.002 0.031-0.002 0.048 0 0.114 0.029 0.22 0.080 0.313l-0.002-0.003c0.031 0.038 0.071 0.068 0.117 0.086l0.002 0.001c0.048 0.019 0.102 0.025 0.155 0.020 0.076 0.005 0.153-0.015 0.212-0.058 0.046-0.039 0.078-0.092 0.089-0.153l0-0.002c0.014-0.084 0.020-0.17 0.019-0.255v-0.259h0.598v0.236c0.001 0.019 0.002 0.040 0.002 0.062 0 0.227-0.079 0.435-0.21 0.6l0.001-0.002c-0.137 0.156-0.371 0.234-0.716 0.234s-0.604-0.083-0.752-0.256zM33.591 15.808c-0.151-0.164-0.227-0.402-0.227-0.717v-1.105c0-0.312 0.076-0.548 0.227-0.708s0.404-0.24 0.758-0.239c0.352 0 0.603 0.080 0.754 0.239 0.151 0.16 0.228 0.396 0.228 0.708v1.105c0 0.312-0.077 0.551-0.23 0.716s-0.404 0.247-0.752 0.247-0.605-0.083-0.758-0.245zM34.628 15.543c0.054-0.103 0.079-0.215 0.072-0.327v-1.353c0.001-0.011 0.001-0.023 0.001-0.035 0-0.104-0.027-0.203-0.074-0.288l0.002 0.003c-0.032-0.039-0.073-0.070-0.12-0.088l-0.002-0.001c-0.035-0.014-0.075-0.021-0.117-0.021-0.014 0-0.029 0.001-0.042 0.003l0.002-0c-0.012-0.002-0.026-0.002-0.041-0.002-0.042 0-0.083 0.008-0.12 0.022l0.002-0.001c-0.049 0.019-0.091 0.049-0.123 0.088l-0 0.001c-0.055 0.1-0.079 0.21-0.072 0.321v1.359c-0.008 0.112 0.017 0.224 0.072 0.327 0.035 0.034 0.078 0.062 0.126 0.081 0.046 0.018 0.098 0.029 0.154 0.029s0.108-0.011 0.157-0.030l-0.003 0.001c0.048-0.019 0.091-0.047 0.126-0.081v-0.007zM36.050 13.071h0.644l0.484 2.038 0.495-2.038h0.627l0.063 2.942h-0.463l-0.049-2.044-0.478 2.044h-0.371l-0.495-2.052-0.046 2.052h-0.468l0.058-2.942zM39.085 13.071h1.003c0.577 0 0.867 0.279 0.867 0.835 0 0.533-0.304 0.8-0.912 0.799h-0.342v1.307h-0.619l0.004-2.942zM39.941 14.329c0.061 0.007 0.123 0.002 0.182-0.015s0.113-0.043 0.158-0.079c0.071-0.099 0.102-0.216 0.089-0.332 0-0.010 0.001-0.022 0.001-0.034 0-0.083-0.011-0.163-0.032-0.24l0.001 0.006c-0.010-0.031-0.026-0.058-0.046-0.081l0 0c-0.022-0.024-0.048-0.044-0.077-0.059l-0.001-0.001c-0.072-0.030-0.155-0.048-0.243-0.048-0.012 0-0.023 0-0.035 0.001l0.002-0h-0.24v0.879h0.24zM41.847 13.071h0.665l0.682 2.942h-0.577l-0.135-0.678h-0.593l-0.139 0.678h-0.585l0.682-2.942zM42.415 14.994l-0.231-1.235-0.232 1.235h0.463zM43.745 13.071h0.433l0.829 1.678v-1.678h0.514v2.942h-0.412l-0.835-1.752v1.752h-0.531l0.001-2.942zM46.725 14.892l-0.689-1.816h0.581l0.421 1.167 0.395-1.167h0.568l-0.681 1.816v1.121h-0.594v-1.121zM32.057 17.3v0.154h-0.505v1.195h-0.211v-1.195h-0.508v-0.154h1.224zM33.641 18.649h-0.164c-0.001 0-0.003 0-0.004 0-0.015 0-0.030-0.005-0.041-0.013l0 0c-0.012-0.007-0.021-0.018-0.027-0.030l-0-0-0.146-0.32h-0.701l-0.146 0.32c-0.004 0.014-0.012 0.026-0.022 0.036v0c-0.012 0.008-0.026 0.013-0.042 0.013-0.001 0-0.003-0-0.004-0h-0.163l0.619-1.349h0.216l0.626 1.344zM32.616 18.148h0.584l-0.247-0.549c-0.016-0.035-0.032-0.077-0.044-0.12l-0.002-0.007-0.023 0.072-0.023 0.057-0.245 0.548zM34.708 18.516c0.039 0.002 0.078 0.002 0.116 0 0.033-0.003 0.067-0.008 0.099-0.016 0.036-0.007 0.065-0.016 0.094-0.026l-0.005 0.002c0.027-0.010 0.055-0.022 0.083-0.033v-0.303h-0.248c-0.001 0-0.002 0-0.003 0-0.005 0-0.011-0.001-0.016-0.002l0 0c-0.006-0.002-0.011-0.005-0.015-0.008l0 0c-0.004-0.003-0.007-0.006-0.009-0.011l-0-0c-0.002-0.004-0.003-0.008-0.003-0.012 0-0.001 0-0.001 0-0.002v0-0.104h0.48v0.517c-0.075 0.047-0.162 0.085-0.255 0.109l-0.007 0.001c-0.051 0.013-0.103 0.022-0.155 0.028-0.054 0.006-0.117 0.009-0.181 0.009-0 0-0 0-0 0v0c-0.002 0-0.005 0-0.007 0-0.109 0-0.214-0.019-0.311-0.053l0.007 0.002c-0.095-0.033-0.178-0.081-0.249-0.142l0.001 0.001c-0.066-0.059-0.12-0.13-0.158-0.21l-0.002-0.004c-0.036-0.080-0.057-0.173-0.057-0.271 0-0.003 0-0.006 0-0.010v0c-0-0.003-0-0.005-0-0.008 0-0.099 0.020-0.193 0.057-0.278l-0.002 0.005c0.036-0.080 0.090-0.153 0.16-0.214s0.155-0.108 0.247-0.14c0.106-0.035 0.219-0.051 0.332-0.050 0.058 0 0.115 0.004 0.172 0.012 0.051 0.007 0.1 0.019 0.147 0.034 0.044 0.014 0.085 0.032 0.124 0.053s0.074 0.045 0.108 0.071l-0.059 0.084c-0.005 0.008-0.012 0.014-0.020 0.018l-0 0c-0.008 0.004-0.018 0.007-0.028 0.007h-0c-0.014-0-0.028-0.004-0.039-0.011l0 0c-0.025-0.012-0.045-0.022-0.064-0.034l0.004 0.002c-0.023-0.013-0.051-0.025-0.079-0.035l-0.004-0.001c-0.032-0.011-0.070-0.022-0.109-0.029l-0.005-0.001c-0.045-0.007-0.096-0.012-0.149-0.012-0.003 0-0.006 0-0.009 0h0c-0.002-0-0.005-0-0.007-0-0.083 0-0.162 0.014-0.237 0.039l0.005-0.002c-0.070 0.024-0.131 0.061-0.182 0.107l0-0c-0.052 0.048-0.091 0.105-0.115 0.167-0.026 0.067-0.042 0.144-0.042 0.225s0.015 0.158 0.043 0.229l-0.001-0.004c0.027 0.063 0.069 0.121 0.124 0.17 0.051 0.046 0.113 0.083 0.181 0.107 0.079 0.023 0.162 0.032 0.245 0.027zM36.681 18.495h0.676v0.154h-0.883v-1.349h0.212l-0.005 1.195zM38.061 18.649h-0.212v-1.349h0.212v1.349zM38.848 17.306c0.012 0.006 0.023 0.015 0.032 0.025l0.905 1.017c-0.001-0.007-0.001-0.016-0.001-0.024s0-0.017 0.001-0.025l-0 0.001v-1.005h0.184v1.355h-0.107c-0.002 0-0.004 0-0.007 0-0.014 0-0.028-0.003-0.040-0.008l0.001 0c-0.013-0.007-0.024-0.015-0.033-0.025l-0-0-0.904-1.016v1.049h-0.177v-1.349h0.11c0.012 0 0.024 0.002 0.035 0.006zM41.529 17.3v0.148h-0.751v0.445h0.608v0.143h-0.608v0.46h0.751v0.148h-0.968v-1.346h0.968zM19.344 8.967l9.401 2.303v8.071l-9.401-2.302v-8.073zM18.741 8.279v9.152l10.605 2.599v-9.151l-10.605-2.6z"></path>
      <path fill="#8e8f99" style="fill: var(--color1, #8e8f99)" d="M24.425 24.279l-10.607-2.601v-9.151l10.607 2.6v9.153z"></path>
      <path fill="#8e8f99" style="fill: var(--color1, #8e8f99)" d="M18.916 8.863l9.278 2.274-3.945 3.406-9.28-2.276 3.947-3.404zM18.741 8.279l-4.923 4.247 10.607 2.6 4.921-4.247-10.605-2.6zM25.022 23.764l4.324-3.732-4.325-1.061v4.793z"></path>
    </symbol>
  </defs>
</svg>
